Motion_mu04
version=1
nRows=13
nColumns=43
inDegrees=yes
endheader
time	pelvis_tilt	pelvis_list	pelvis_rotation	pelvis_tx	pelvis_ty	pelvis_tz	hip_flexion_r	hip_adduction_r	hip_rotation_r	knee_angle_r	ankle_angle_r	subtalar_angle_r	mtp_angle_r	hip_flexion_l	hip_adduction_l	hip_rotation_l	knee_angle_l	ankle_angle_l	subtalar_angle_l	mtp_angle_l	lumbar_extension	lumbar_bending	lumbar_rotation	neck_flexion	neck_lateral_bending	neck_rotation	arm_flex_r	arm_add_r	arm_rot_r	elbow_flex_r	pro_sup_r	wrist_flex_r	wrist_dev_r	hand_finger_flex_r	arm_flex_l	arm_add_l	arm_rot_l	elbow_flex_l	pro_sup_l	wrist_flex_l	wrist_dev_l	hand_finger_flex_l
      1.16250000	     -2.28539352	    -31.68771347	    -94.11345236	     -0.04660505	      1.10016737	      1.57712632	    -16.16896662	     -9.71055452	    -17.44899826	    -61.52518707	     -9.42749409	    -12.21080845	     -7.59048511	    -12.11037437	    -10.33106081	    -22.68504130	    -51.41429678	     -1.36815176	    -16.22876532	      3.45034153	     11.43950482	      3.23451156	      3.49970659	    -30.57435861	     -2.52211687	     -5.63566213	    -46.27407009	   -148.22777773	   -144.92586409	     57.68386214	     93.97841236	     58.81678794	     15.94038234	     81.09179580	    131.09550692	    -27.70234124	     22.90803207	     55.00570283	    109.94034497	     64.06352938	     14.22387385	     73.29735695
      1.16500000	     -2.11213671	    -31.68887933	    -94.32059032	     -0.04716558	      1.10075225	      1.57819546	    -15.46616987	     -9.88005389	    -16.97771644	    -62.36456333	     -9.59739976	    -13.26312139	     -7.58569259	    -11.91884302	    -10.17566054	    -22.94452353	    -51.70609544	     -1.82836376	    -16.85045929	      3.58946671	     11.49466520	      3.04987924	      3.77534259	    -30.60264606	     -2.33852931	     -5.62584212	    -46.54979341	   -148.10672628	   -145.40100126	     58.02563302	     94.16221820	     58.72999643	     16.30715434	     81.41787249	    131.03382248	    -27.36527984	     22.36337225	     55.11321506	    110.62495407	     64.38792181	     14.52763050	     73.26032032
      1.16750000	     -2.12804888	    -31.88478111	    -94.26437350	     -0.04710830	      1.10218591	      1.57994876	    -15.35237469	     -9.85041158	    -16.95575131	    -62.78091000	     -9.56129787	    -13.30401069	     -7.57666712	    -12.02983455	    -10.23671977	    -22.90463988	    -51.87534515	     -1.85087721	    -16.86303219	      3.59464455	     11.47477723	      3.02790491	      3.72046671	    -30.59616116	     -2.35181245	     -5.63876118	    -46.68771431	   -148.09215287	   -145.38484187	     58.01228072	     94.15680581	     58.73430376	     16.30974001	     81.42646437	    130.90372993	    -27.31465368	     22.38031661	     55.12741113	    110.62084532	     64.41060333	     14.51792993	     73.25936658
      1.17000000	     -2.09644095	    -32.09444741	    -94.26759224	     -0.04733733	      1.10270586	      1.58071287	    -14.94774063	     -9.81992739	    -16.65341191	    -63.62459328	     -9.40357044	    -13.76469457	     -7.56034368	    -11.88871149	    -10.28337749	    -22.75246442	    -52.44316629	     -2.00304960	    -16.99526700	      3.63958828	     11.22019615	      2.90931374	      3.69530742	    -30.39879353	     -2.29080681	     -5.76439868	    -46.77977368	   -148.07218586	   -145.87514889	     58.14738678	     94.19343304	     58.68683434	     16.40796598	     81.53954697	    130.95101396	    -27.16198550	     22.04794175	     55.28020319	    110.75958649	     64.39616669	     14.62523503	     73.28433161
      1.17250000	     -2.09398333	    -32.34372064	    -94.21503993	     -0.04725345	      1.10384044	      1.58193883	    -14.75282227	     -9.83937231	    -16.61030605	    -64.26764788	     -9.36346592	    -13.93464829	     -7.55842870	    -11.91773326	    -10.37714680	    -22.74182849	    -52.86096404	     -2.03784412	    -17.06322370	      3.65076465	     11.06415984	      2.86635156	      3.66394173	    -30.52926356	     -2.29728907	     -5.77225160	    -46.88805637	   -148.05867555	   -145.98674549	     58.21710410	     94.20717429	     58.69016174	     16.43845332	     81.56804064	    130.89077171	    -27.10022179	     22.00402404	     55.34593931	    110.79857600	     64.41155503	     14.67018009	     73.30421740
      1.17500000	     -1.98664824	    -32.27349793	    -94.25498635	     -0.04769663	      1.10440773	      1.58300406	    -14.03444070	     -9.84476147	    -16.28638755	    -65.08090003	     -9.50400461	    -14.90724915	     -7.69098721	    -11.49266185	    -10.35721732	    -22.70576861	    -53.45884108	     -2.26712947	    -17.44019242	      3.71190573	     11.25295222	      2.70183016	      3.68955847	    -30.48792048	     -2.14620691	     -5.69031951	    -47.30826603	   -148.05017066	   -146.57477844	     58.47917105	     94.55734157	     58.64726462	     16.81713620	     81.75092959	    130.71294877	    -26.84906457	     21.57759431	     55.53764795	    111.25710981	     64.40931304	     15.23189162	     73.55801971
      1.17750000	     -1.99730251	    -32.55530286	    -94.18937281	     -0.04762996	      1.10551056	      1.58409651	    -13.82417218	     -9.82738174	    -16.19639192	    -65.80816356	     -9.42336849	    -15.02454668	     -7.69005047	    -11.52813115	    -10.45784721	    -22.62333690	    -53.92877400	     -2.30089741	    -17.47015819	      3.71647788	     11.04453845	      2.65269977	      3.63267830	    -30.55927640	     -2.15242273	     -5.72888819	    -47.40695164	   -148.03769325	   -146.72665378	     58.51516548	     94.53478212	     58.64279346	     16.81005368	     81.76698541	    130.65256296	    -26.78869463	     21.50537517	     55.60446883	    111.22363802	     64.40040399	     15.22506347	     73.58263303
      1.18000000	     -1.98942913	    -32.85280302	    -94.14853194	     -0.04765588	      1.10647293	      1.58498877	    -13.57401526	     -9.81541512	    -16.04671377	    -66.59698325	     -9.30995540	    -15.24126493	     -7.69522468	    -11.49891965	    -10.54441055	    -22.52442015	    -54.55540281	     -2.34157321	    -17.52222336	      3.71678274	     10.78913149	      2.58086810	      3.59458408	    -30.52937437	     -2.15191639	     -5.77798012	    -47.52282974	   -148.03653469	   -146.98646439	     58.56905076	     94.53880532	     58.63479802	     16.82970299	     81.78396106	    130.60989145	    -26.72758717	     21.40674435	     55.66569732	    111.22086498	     64.36434272	     15.24534466	     73.60954088
      1.18250000	     -1.93546508	    -33.00704670	    -94.17713795	     -0.04798352	      1.10706327	      1.58569690	    -13.08077039	     -9.76619294	    -15.70441848	    -67.46434871	     -9.14883921	    -15.80984774	     -7.77016410	    -11.22142573	    -10.55564373	    -22.34583563	    -55.33935483	     -2.43685109	    -17.64287709	      3.69847207	     10.63631099	      2.46135937	      3.55003259	    -30.12204944	     -2.08709071	     -5.83646573	    -47.76465356	   -148.10916534	   -147.52004005	     58.69457076	     94.69245024	     58.61348997	     16.97601125	     81.80866270	    130.65803314	    -26.63329584	     21.16163393	     55.72207366	    111.36156141	     64.24408293	     15.39595181	     73.69002591
      1.18500000	     -1.84888919	    -32.73155541	    -94.15722178	     -0.04828663	      1.10731826	      1.58669497	    -12.04781965	     -9.77027170	    -15.49594850	    -68.47689098	     -9.24356106	    -16.66614424	     -8.13955502	    -10.48211078	    -10.64784183	    -22.31443513	    -56.14201520	     -2.54644320	    -17.89843865	      3.61478761	     11.06119964	      2.33161240	      3.48639635	    -30.24056255	     -2.00944481	     -5.66030129	    -48.23470123	   -148.12348842	   -148.08480024	     58.99894675	     95.13685318	     58.62105114	     17.28856049	     81.81899824	    130.52585739	    -26.48952781	     20.91379648	     55.86821688	    111.76056006	     64.28439702	     15.69001852	     73.94724933
      1.18750000	     -1.85388237	    -33.03940442	    -94.15496119	     -0.04830323	      1.10835474	      1.58735930	    -11.75473086	     -9.74940328	    -15.30991435	    -69.30349278	     -9.12042908	    -16.81355522	     -8.18072684	    -10.39654652	    -10.69286141	    -22.11555983	    -56.88863321	     -2.57445835	    -17.92695922	      3.60258760	     10.79920293	      2.27940108	      3.46156400	    -30.33175730	     -2.02287413	     -5.70403753	    -48.40186477	   -148.12301761	   -148.29850305	     59.02811416	     95.12679707	     58.61570774	     17.27343442	     81.82779162	    130.48009061	    -26.44324172	     20.80457924	     55.92257903	    111.73900503	     64.28997999	     15.64196234	     73.96840058
      1.19000000	     -1.75291166	    -32.59785503	    -94.10899512	     -0.04847742	      1.10818964	      1.58817768	    -10.44198904	     -9.71820231	    -15.00857211	    -70.46840721	     -8.99438036	    -17.47076271	     -8.72050863	     -9.35113991	    -10.74967897	    -21.91149131	    -57.87780334	     -2.59875789	    -18.08531926	      3.44697620	     11.38050937	      2.16568154	      3.39180384	    -30.37503828	     -1.99042799	     -5.58828292	    -48.84322486	   -148.17078792	   -148.88644008	     59.26166321	     95.57244661	     58.60903364	     17.46122917	     81.84312556	    130.35642495	    -26.31179696	     20.54449927	     55.99948022	    112.28044141	     64.52755158	     15.58908854	     74.05690415
      1.19250000	     -1.75751003	    -32.95901216	    -94.04647754	     -0.04826267	      1.10938752	      1.58885902	    -10.20963466	     -9.73774562	    -14.93349518	    -71.32721789	     -8.87445346	    -17.58540383	     -8.73174348	     -9.34427329	    -10.85765722	    -21.84304839	    -58.60346340	     -2.62406668	    -18.11039515	      3.43909618	     11.07968875	      2.12598684	      3.36930883	    -30.47352167	     -2.04038671	     -5.62019528	    -48.96420681	   -148.15012769	   -149.07255922	     59.33612793	     95.53601249	     58.60947553	     17.43046936	     81.85493310	    130.26729510	    -26.27491765	     20.48141671	     56.03961265	    112.25321592	     64.53806654	     15.53099013	     74.04960690
